<?xml version="1.0" encoding="UTF-8"?>
<svg id="Layer_2" xmlns="http://www.w3.org/2000/svg" viewBox="0 0 17 17.72">
  <defs>
    <style>
      .cls-1 {
        fill: none;
        stroke: #141414;
        stroke-miterlimit: 10;
      }
    </style>
  </defs>
  <g id="object">
    <path class="cls-1" d="M16.5,8.72v2.31c0,1.24-.71,2.25-1.57,2.25h-.47v.79c0,1.36-1.1,2.46-2.46,2.46h-.72c-.1.4-.46.69-.88.69h-1.68c-.5,0-.91-.41-.91-.91v-.38c0-.5.41-.91.91-.91h1.68c.42,0,.78.29.88.68h.72c.9,0,1.63-.73,1.63-1.63v-.79h-.76c-.26,0-.46-.3-.46-.66v-5.48c0-.37.21-.66.46-.66h.11v-.3c0-2.12-1.72-3.84-3.84-3.84h-1.2c-2.12,0-3.84,1.72-3.84,3.84v.3h.04c.26,0,.46.3.46.66v5.48c0,.37-.21.66-.46.66h-2.06c-.87,0-1.57-1.01-1.57-2.25v-2.31c0-1.24.71-2.25,1.57-2.25h.19v-.3C2.26,3.05,4.81.5,7.94.5h1.2c3.13,0,5.67,2.55,5.67,5.67v.3h.11c.87,0,1.57,1.01,1.57,2.25Z"/>
  </g>
</svg>