<?xml version="1.0" encoding="UTF-8"?>
<svg id="Layer_2" xmlns="http://www.w3.org/2000/svg" viewBox="0 0 11.24 17.06">
  <defs>
    <style>
      .cls-1 {
        fill: #141414;
      }

      .cls-2 {
        fill: none;
        stroke: #141414;
        stroke-miterlimit: 10;
      }
    </style>
  </defs>
  <g id="object">
    <path class="cls-1" d="M10.21,5.75c.62.55,1.03,1.58,1.03,2.77,0,1.19-.41,2.24-1.03,2.79v-5.56Z"/>
    <path class="cls-2" d="M.75,5.46h2.07s0-.02,0-.02c2.44-.05,4.64-1.92,6.25-4.91.02-.04.05-.04.08-.02v16.04s-.03,0-.04-.03c-1.62-2.97-3.83-4.8-6.27-4.82,0,0,0,0,0,0H.76c-.14.02-.25-.2-.25-.47v-5.29c-.01-.27.1-.48.24-.48Z"/>
  </g>
</svg>