<?xml version="1.0" encoding="UTF-8"?>
<svg id="Layer_2" xmlns="http://www.w3.org/2000/svg" viewBox="0 0 16 18.46">
  <g id="OBJECTS">
    <path d="M14.01,3.95c-.12-.06-.25-.13-.36-.21-.34-.23-.66-.49-.93-.79-.7-.8-.96-1.6-1.05-2.17h0c-.08-.47-.05-.77-.04-.77h-3.17v12.26c0,.16,0,.33,0,.49,0,.02,0,.04,0,.06,0,0,0,.02,0,.03h0c-.07.9-.58,1.7-1.35,2.14-.4.23-.85.35-1.31.35-1.48,0-2.67-1.2-2.67-2.69s1.2-2.69,2.67-2.69c.28,0,.56.04.82.13v-3.23c-1.63-.21-3.27.27-4.53,1.33-.55.47-1.01,1.04-1.36,1.67-.13.23-.64,1.16-.7,2.66-.04.85.22,1.74.34,2.1H.34c.08.22.37.96.86,1.58.39.5.85.93,1.37,1.3h0s0,0,0,0c1.53,1.04,3.24.97,3.24.97.29-.01,1.28,0,2.4-.53,1.24-.59,1.95-1.47,1.95-1.47.45-.52.81-1.12,1.06-1.77.29-.75.38-1.66.38-2.02v-6.5s.55.36.55.36c0,0,.74.47,1.89.78.83.22,1.94.27,1.94.27v-3.15c-.39.04-1.18-.08-1.99-.48Z"/>
  </g>
</svg>